<svg width="59" height="63" viewBox="0 0 59 63" fill="none" xmlns="http://www.w3.org/2000/svg">
<path d="M0 39V62.499H44C59.5 55.999 58 43.999 58 43.999C58 43.999 58 34.5 48.5 28.4992C53.5 23.999 55.7719 22.1128 55.5 14.499C55 0.499023 45.9129 -7.05832e-05 39 1.76841e-05C23.1838 0.000219634 0 0 0 0V19H11V9.99902L39 10C41.4897 10.9452 42.7094 12.8601 43 15.5C43.3445 18.6296 42.0602 20.9819 39 22.5H26V34.5H38.6293C44.7586 34.5 45 39.499 45 43.999C45 48.499 44.5 51.9983 39.7697 51.999C35.0393 51.9998 11 52 11 52V39H0Z" fill="#F36A2D"/>
<path d="M0 22.5V34.5H22V22.5H0Z" fill="#F36A2D"/>
<path d="M38.5 39H15V47.5H38.5C40.5 46.999 40.5 43.499 40.5 43.499C40.5 43.499 40.5 39.999 38.5 39Z" fill="#F36A2D"/>
</svg>
