<svg width="188" height="63" viewBox="0 0 188 63" fill="none" xmlns="http://www.w3.org/2000/svg">
<path d="M84.3146 28.47C85.6912 28.7267 86.8229 29.415 87.7096 30.535C88.5962 31.655 89.0396 32.9383 89.0396 34.385C89.0396 35.6917 88.7129 36.8467 88.0596 37.85C87.4296 38.83 86.5079 39.6 85.2946 40.16C84.0812 40.72 82.6462 41 80.9896 41H70.4546V16.57H80.5346C82.1912 16.57 83.6146 16.8383 84.8046 17.375C86.0179 17.9117 86.9279 18.6583 87.5346 19.615C88.1646 20.5717 88.4796 21.6567 88.4796 22.87C88.4796 24.2933 88.0946 25.4833 87.3246 26.44C86.5779 27.3967 85.5746 28.0733 84.3146 28.47ZM75.3546 26.65H79.8346C81.0012 26.65 81.8996 26.3933 82.5296 25.88C83.1596 25.3433 83.4746 24.585 83.4746 23.605C83.4746 22.625 83.1596 21.8667 82.5296 21.33C81.8996 20.7933 81.0012 20.525 79.8346 20.525H75.3546V26.65ZM80.2896 37.01C81.4796 37.01 82.4012 36.73 83.0546 36.17C83.7312 35.61 84.0696 34.8167 84.0696 33.79C84.0696 32.74 83.7196 31.9233 83.0196 31.34C82.3196 30.7333 81.3746 30.43 80.1846 30.43H75.3546V37.01H80.2896ZM97.8448 24.62C98.4748 23.5933 99.2915 22.7883 100.295 22.205C101.321 21.6217 102.488 21.33 103.795 21.33V26.475H102.5C100.96 26.475 99.7931 26.8367 98.9998 27.56C98.2298 28.2833 97.8448 29.5433 97.8448 31.34V41H92.9448V21.61H97.8448V24.62ZM109.58 19.3C108.717 19.3 107.994 19.0317 107.41 18.495C106.85 17.935 106.57 17.2467 106.57 16.43C106.57 15.6133 106.85 14.9367 107.41 14.4C107.994 13.84 108.717 13.56 109.58 13.56C110.444 13.56 111.155 13.84 111.715 14.4C112.299 14.9367 112.59 15.6133 112.59 16.43C112.59 17.2467 112.299 17.935 111.715 18.495C111.155 19.0317 110.444 19.3 109.58 19.3ZM111.995 21.61V41H107.095V21.61H111.995ZM128.316 41L121.736 32.74V41H116.836V15.1H121.736V29.835L128.246 21.61H134.616L126.076 31.34L134.686 41H128.316ZM142.981 25.635V35.015C142.981 35.6683 143.133 36.1467 143.436 36.45C143.763 36.73 144.299 36.87 145.046 36.87H147.321V41H144.241C140.111 41 138.046 38.9933 138.046 34.98V25.635H135.736V21.61H138.046V16.815H142.981V21.61H147.321V25.635H142.981ZM155.745 24.62C156.375 23.5933 157.192 22.7883 158.195 22.205C159.222 21.6217 160.389 21.33 161.695 21.33V26.475H160.4C158.86 26.475 157.694 26.8367 156.9 27.56C156.13 28.2833 155.745 29.5433 155.745 31.34V41H150.845V21.61H155.745V24.62ZM163.736 31.235C163.736 29.275 164.121 27.5367 164.891 26.02C165.684 24.5033 166.746 23.3367 168.076 22.52C169.429 21.7033 170.934 21.295 172.591 21.295C174.037 21.295 175.297 21.5867 176.371 22.17C177.467 22.7533 178.342 23.4883 178.996 24.375V21.61H183.931V41H178.996V38.165C178.366 39.075 177.491 39.8333 176.371 40.44C175.274 41.0233 174.002 41.315 172.556 41.315C170.922 41.315 169.429 40.895 168.076 40.055C166.746 39.215 165.684 38.0367 164.891 36.52C164.121 34.98 163.736 33.2183 163.736 31.235ZM178.996 31.305C178.996 30.115 178.762 29.1 178.296 28.26C177.829 27.3967 177.199 26.7433 176.406 26.3C175.612 25.8333 174.761 25.6 173.851 25.6C172.941 25.6 172.101 25.8217 171.331 26.265C170.561 26.7083 169.931 27.3617 169.441 28.225C168.974 29.065 168.741 30.0683 168.741 31.235C168.741 32.4017 168.974 33.4283 169.441 34.315C169.931 35.1783 170.561 35.8433 171.331 36.31C172.124 36.7767 172.964 37.01 173.851 37.01C174.761 37.01 175.612 36.7883 176.406 36.345C177.199 35.8783 177.829 35.225 178.296 34.385C178.762 33.5217 178.996 32.495 178.996 31.305Z" fill="#2B2B2B"/>
<path d="M0 39V62.499H44C59.5 55.999 58 43.999 58 43.999C58 43.999 58 34.5 48.5 28.4992C53.5 23.999 55.7719 22.1128 55.5 14.499C55 0.499023 45.9129 -7.05832e-05 39 1.76841e-05C23.1838 0.000219634 0 0 0 0V19H11V9.99902L39 10C41.4897 10.9452 42.7094 12.8601 43 15.5C43.3445 18.6296 42.0602 20.9819 39 22.5H26V34.5H38.6293C44.7586 34.5 45 39.499 45 43.999C45 48.499 44.5 51.9983 39.7697 51.999C35.0393 51.9998 11 52 11 52V39H0Z" fill="#F36A2D"/>
<path d="M0 22.5V34.5H22V22.5H0Z" fill="#F36A2D"/>
<path d="M38.5 39H15V47.5H38.5C40.5 46.999 40.5 43.499 40.5 43.499C40.5 43.499 40.5 39.999 38.5 39Z" fill="#F36A2D"/>
</svg>
